{
    "asset" : {
        "generator" : "Khronos glTF Blender I/O v1.8.19",
        "version" : "2.0"
    },
    "scene" : 0,
    "scenes" : [
        {
            "name" : "Scene",
            "nodes" : [
                1
            ]
        }
    ],
    "nodes" : [
        {
            "mesh" : 0,
            "name" : "tire_black"
        },
        {
            "children" : [
                0
            ],
            "name" : "tire_root"
        }
    ],
    "materials" : [
        {
            "doubleSided" : true,
            "name" : "black.003",
            "pbrMetallicRoughness" : {
                "baseColorFactor" : [
                    0,
                    0,
                    0,
                    1
                ],
                "metallicFactor" : 0
            }
        },
        {
            "doubleSided" : true,
            "name" : "wheel.003",
            "pbrMetallicRoughness" : {
                "baseColorTexture" : {
                    "index" : 0
                },
                "roughnessFactor" : 0.20000000298023224
            }
        },
        {
            "doubleSided" : true,
            "name" : "tred.003",
            "normalTexture" : {
                "index" : 1
            },
            "pbrMetallicRoughness" : {
                "baseColorFactor" : [
                    0.4000000059604645,
                    0.4000000059604645,
                    0.4000000059604645,
                    1
                ],
                "baseColorTexture" : {
                    "index" : 2
                },
                "metallicFactor" : 0,
                "roughnessFactor" : 0.800000011920929
            }
        },
        {
            "doubleSided" : true,
            "name" : "tire_out.003",
            "normalTexture" : {
                "index" : 3,
                "scale" : 0.5
            },
            "pbrMetallicRoughness" : {
                "baseColorTexture" : {
                    "index" : 4
                },
                "metallicFactor" : 0,
                "roughnessFactor" : 0.5
            }
        },
        {
            "doubleSided" : true,
            "name" : "tire_in.003",
            "pbrMetallicRoughness" : {
                "baseColorFactor" : [
                    0.20000000298023224,
                    0.20000000298023224,
                    0.20000000298023224,
                    1
                ],
                "baseColorTexture" : {
                    "index" : 5
                },
                "metallicFactor" : 0,
                "roughnessFactor" : 0.8999999761581421
            }
        },
        {
            "doubleSided" : true,
            "name" : "map_wheel.003",
            "pbrMetallicRoughness" : {
                "baseColorTexture" : {
                    "index" : 6
                },
                "metallicFactor" : 0,
                "roughnessFactor" : 0.5
            }
        }
    ],
    "meshes" : [
        {
            "name" : "tire_black_0.003",
            "primitives" : [
                {
                    "attributes" : {
                        "POSITION" : 0,
                        "NORMAL" : 1,
                        "TANGENT" : 2,
                        "TEXCOORD_0" : 3
                    },
                    "indices" : 4,
                    "material" : 0
                },
                {
                    "attributes" : {
                        "POSITION" : 5,
                        "NORMAL" : 6,
                        "TANGENT" : 7,
                        "TEXCOORD_0" : 8
                    },
                    "indices" : 9,
                    "material" : 1
                },
                {
                    "attributes" : {
                        "POSITION" : 10,
                        "NORMAL" : 11,
                        "TANGENT" : 12,
                        "TEXCOORD_0" : 13
                    },
                    "indices" : 14,
                    "material" : 2
                },
                {
                    "attributes" : {
                        "POSITION" : 15,
                        "NORMAL" : 16,
                        "TANGENT" : 17,
                        "TEXCOORD_0" : 18
                    },
                    "indices" : 19,
                    "material" : 3
                },
                {
                    "attributes" : {
                        "POSITION" : 20,
                        "NORMAL" : 21,
                        "TANGENT" : 22,
                        "TEXCOORD_0" : 23
                    },
                    "indices" : 24,
                    "material" : 4
                },
                {
                    "attributes" : {
                        "POSITION" : 25,
                        "NORMAL" : 26,
                        "TANGENT" : 27,
                        "TEXCOORD_0" : 28
                    },
                    "indices" : 29,
                    "material" : 5
                }
            ]
        }
    ],
    "textures" : [
        {
            "sampler" : 0,
            "source" : 0
        },
        {
            "sampler" : 0,
            "source" : 1
        },
        {
            "sampler" : 0,
            "source" : 2
        },
        {
            "sampler" : 0,
            "source" : 3
        },
        {
            "sampler" : 0,
            "source" : 4
        },
        {
            "sampler" : 0,
            "source" : 4
        },
        {
            "sampler" : 0,
            "source" : 5
        }
    ],
    "images" : [
        {
            "mimeType" : "image/png",
            "name" : "chrom_baseColor",
            "uri" : "textures/chrom_baseColor.png"
        },
        {
            "mimeType" : "image/png",
            "name" : "tred_normal",
            "uri" : "textures/tred_normal.png"
        },
        {
            "mimeType" : "image/png",
            "name" : "tred_baseColor",
            "uri" : "textures/tred_baseColor.png"
        },
        {
            "mimeType" : "image/png",
            "name" : "tire_out_normal",
            "uri" : "textures/tire_out_normal.png"
        },
        {
            "mimeType" : "image/png",
            "name" : "tire_out_baseColor",
            "uri" : "textures/tire_out_baseColor.png"
        },
        {
            "mimeType" : "image/png",
            "name" : "map_wheel_baseColor",
            "uri" : "textures/map_wheel_baseColor.png"
        }
    ],
    "accessors" : [
        {
            "bufferView" : 0,
            "componentType" : 5126,
            "count" : 308,
            "max" : [
                0.20856307446956635,
                0.366017609834671,
                0.3690241277217865
            ],
            "min" : [
                -0.18142512440681458,
                -0.37207308411598206,
                -0.3691791594028473
            ],
            "type" : "VEC3"
        },
        {
            "bufferView" : 1,
            "componentType" : 5126,
            "count" : 308,
            "type" : "VEC3"
        },
        {
            "bufferView" : 2,
            "componentType" : 5126,
            "count" : 308,
            "type" : "VEC4"
        },
        {
            "bufferView" : 3,
            "componentType" : 5126,
            "count" : 308,
            "type" : "VEC2"
        },
        {
            "bufferView" : 4,
            "componentType" : 5123,
            "count" : 468,
            "type" : "SCALAR"
        },
        {
            "bufferView" : 5,
            "componentType" : 5126,
            "count" : 2360,
            "max" : [
                0.21235954761505127,
                0.3615618050098419,
                0.358021080493927
            ],
            "min" : [
                0.011020366102457047,
                -0.35453400015830994,
                -0.35818085074424744
            ],
            "type" : "VEC3"
        },
        {
            "bufferView" : 6,
            "componentType" : 5126,
            "count" : 2360,
            "type" : "VEC3"
        },
        {
            "bufferView" : 7,
            "componentType" : 5126,
            "count" : 2360,
            "type" : "VEC4"
        },
        {
            "bufferView" : 8,
            "componentType" : 5126,
            "count" : 2360,
            "type" : "VEC2"
        },
        {
            "bufferView" : 9,
            "componentType" : 5123,
            "count" : 11250,
            "type" : "SCALAR"
        },
        {
            "bufferView" : 10,
            "componentType" : 5126,
            "count" : 320,
            "max" : [
                0.21378499269485474,
                0.556537926197052,
                0.5535664558410645
            ],
            "min" : [
                -0.18557384610176086,
                -0.5560370087623596,
                -0.5537242293357849
            ],
            "type" : "VEC3"
        },
        {
            "bufferView" : 11,
            "componentType" : 5126,
            "count" : 320,
            "type" : "VEC3"
        },
        {
            "bufferView" : 12,
            "componentType" : 5126,
            "count" : 320,
            "type" : "VEC4"
        },
        {
            "bufferView" : 13,
            "componentType" : 5126,
            "count" : 320,
            "type" : "VEC2"
        },
        {
            "bufferView" : 14,
            "componentType" : 5123,
            "count" : 720,
            "type" : "SCALAR"
        },
        {
            "bufferView" : 15,
            "componentType" : 5126,
            "count" : 160,
            "max" : [
                0.22727811336517334,
                0.5152870416641235,
                0.5117263793945312
            ],
            "min" : [
                0.19604359567165375,
                -0.5081711411476135,
                -0.5118831992149353
            ],
            "type" : "VEC3"
        },
        {
            "bufferView" : 16,
            "componentType" : 5126,
            "count" : 160,
            "type" : "VEC3"
        },
        {
            "bufferView" : 17,
            "componentType" : 5126,
            "count" : 160,
            "type" : "VEC4"
        },
        {
            "bufferView" : 18,
            "componentType" : 5126,
            "count" : 160,
            "type" : "VEC2"
        },
        {
            "bufferView" : 19,
            "componentType" : 5123,
            "count" : 720,
            "type" : "SCALAR"
        },
        {
            "bufferView" : 20,
            "componentType" : 5126,
            "count" : 120,
            "max" : [
                -0.16783256828784943,
                0.508672297000885,
                0.5117267370223999
            ],
            "min" : [
                -0.19906747341156006,
                -0.5147860646247864,
                -0.5118845105171204
            ],
            "type" : "VEC3"
        },
        {
            "bufferView" : 21,
            "componentType" : 5126,
            "count" : 120,
            "type" : "VEC3"
        },
        {
            "bufferView" : 22,
            "componentType" : 5126,
            "count" : 120,
            "type" : "VEC4"
        },
        {
            "bufferView" : 23,
            "componentType" : 5126,
            "count" : 120,
            "type" : "VEC2"
        },
        {
            "bufferView" : 24,
            "componentType" : 5123,
            "count" : 480,
            "type" : "SCALAR"
        },
        {
            "bufferView" : 25,
            "componentType" : 5126,
            "count" : 114,
            "max" : [
                0.11561289429664612,
                0.043984755873680115,
                0.04191332682967186
            ],
            "min" : [
                0.11415693163871765,
                -0.03998953104019165,
                -0.042073074728250504
            ],
            "type" : "VEC3"
        },
        {
            "bufferView" : 26,
            "componentType" : 5126,
            "count" : 114,
            "type" : "VEC3"
        },
        {
            "bufferView" : 27,
            "componentType" : 5126,
            "count" : 114,
            "type" : "VEC4"
        },
        {
            "bufferView" : 28,
            "componentType" : 5126,
            "count" : 114,
            "type" : "VEC2"
        },
        {
            "bufferView" : 29,
            "componentType" : 5123,
            "count" : 114,
            "type" : "SCALAR"
        }
    ],
    "bufferViews" : [
        {
            "buffer" : 0,
            "byteLength" : 3696,
            "byteOffset" : 0
        },
        {
            "buffer" : 0,
            "byteLength" : 3696,
            "byteOffset" : 3696
        },
        {
            "buffer" : 0,
            "byteLength" : 4928,
            "byteOffset" : 7392
        },
        {
            "buffer" : 0,
            "byteLength" : 2464,
            "byteOffset" : 12320
        },
        {
            "buffer" : 0,
            "byteLength" : 936,
            "byteOffset" : 14784
        },
        {
            "buffer" : 0,
            "byteLength" : 28320,
            "byteOffset" : 15720
        },
        {
            "buffer" : 0,
            "byteLength" : 28320,
            "byteOffset" : 44040
        },
        {
            "buffer" : 0,
            "byteLength" : 37760,
            "byteOffset" : 72360
        },
        {
            "buffer" : 0,
            "byteLength" : 18880,
            "byteOffset" : 110120
        },
        {
            "buffer" : 0,
            "byteLength" : 22500,
            "byteOffset" : 129000
        },
        {
            "buffer" : 0,
            "byteLength" : 3840,
            "byteOffset" : 151500
        },
        {
            "buffer" : 0,
            "byteLength" : 3840,
            "byteOffset" : 155340
        },
        {
            "buffer" : 0,
            "byteLength" : 5120,
            "byteOffset" : 159180
        },
        {
            "buffer" : 0,
            "byteLength" : 2560,
            "byteOffset" : 164300
        },
        {
            "buffer" : 0,
            "byteLength" : 1440,
            "byteOffset" : 166860
        },
        {
            "buffer" : 0,
            "byteLength" : 1920,
            "byteOffset" : 168300
        },
        {
            "buffer" : 0,
            "byteLength" : 1920,
            "byteOffset" : 170220
        },
        {
            "buffer" : 0,
            "byteLength" : 2560,
            "byteOffset" : 172140
        },
        {
            "buffer" : 0,
            "byteLength" : 1280,
            "byteOffset" : 174700
        },
        {
            "buffer" : 0,
            "byteLength" : 1440,
            "byteOffset" : 175980
        },
        {
            "buffer" : 0,
            "byteLength" : 1440,
            "byteOffset" : 177420
        },
        {
            "buffer" : 0,
            "byteLength" : 1440,
            "byteOffset" : 178860
        },
        {
            "buffer" : 0,
            "byteLength" : 1920,
            "byteOffset" : 180300
        },
        {
            "buffer" : 0,
            "byteLength" : 960,
            "byteOffset" : 182220
        },
        {
            "buffer" : 0,
            "byteLength" : 960,
            "byteOffset" : 183180
        },
        {
            "buffer" : 0,
            "byteLength" : 1368,
            "byteOffset" : 184140
        },
        {
            "buffer" : 0,
            "byteLength" : 1368,
            "byteOffset" : 185508
        },
        {
            "buffer" : 0,
            "byteLength" : 1824,
            "byteOffset" : 186876
        },
        {
            "buffer" : 0,
            "byteLength" : 912,
            "byteOffset" : 188700
        },
        {
            "buffer" : 0,
            "byteLength" : 228,
            "byteOffset" : 189612
        }
    ],
    "samplers" : [
        {
            "magFilter" : 9729,
            "minFilter" : 9987
        }
    ],
    "buffers" : [
        {
            "byteLength" : 189840,
            "uri" : "corvette_wheel.bin"
        }
    ]
}
